<svg width="116" height="24" viewBox="0 0 116 24" fill="none" xmlns="http://www.w3.org/2000/svg">
<path d="M7.85432 1.09216L13.4817 16.9814L19.0791 1.09216H25.0074V23H20.4784V17.0115L20.9298 6.67444L15.0165 23H11.9169L6.01864 6.68949L6.47004 17.0115V23H1.95606V1.09216H7.85432Z" fill="white" fill-opacity="0.8"/>
<path d="M54.764 17.6886L57.7884 6.71958H62.3325L56.8405 23H52.6876L47.1956 6.71958H51.7397L54.764 17.6886ZM68.6138 23H64.2503V6.71958H68.6138V23ZM63.9945 2.50654C63.9945 1.85452 64.2101 1.31785 64.6415 0.89655C65.0829 0.475245 65.6797 0.264593 66.432 0.264593C67.1743 0.264593 67.7662 0.475245 68.2075 0.89655C68.6489 1.31785 68.8696 1.85452 68.8696 2.50654C68.8696 3.16859 68.6439 3.71026 68.1925 4.13157C67.7511 4.55287 67.1643 4.76352 66.432 4.76352C65.6998 4.76352 65.1079 4.55287 64.6565 4.13157C64.2152 3.71026 63.9945 3.16859 63.9945 2.50654ZM79.4693 23.3009C77.0819 23.3009 75.1358 22.5687 73.6312 21.1041C72.1365 19.6396 71.3892 17.6886 71.3892 15.251V14.8297C71.3892 13.1946 71.7052 11.7351 72.3372 10.4511C72.9691 9.15713 73.8619 8.16406 75.0155 7.47191C76.1791 6.76974 77.5032 6.41865 78.9878 6.41865C81.2147 6.41865 82.9651 7.12082 84.239 8.52517C85.523 9.92952 86.165 11.9207 86.165 14.4987V16.2742H75.7979C75.9383 17.3375 76.3596 18.1901 77.0618 18.8321C77.774 19.4741 78.6718 19.7951 79.7551 19.7951C81.4303 19.7951 82.7394 19.1882 83.6823 17.9744L85.8189 20.3668C85.1669 21.2897 84.2842 22.0119 83.1707 22.5336C82.0573 23.0451 80.8234 23.3009 79.4693 23.3009ZM78.9727 9.93955C78.11 9.93955 77.4079 10.2305 76.8662 10.8123C76.3345 11.3941 75.9935 12.2266 75.843 13.31H81.8918V12.9639C81.8717 12.0009 81.6109 11.2586 81.1093 10.737C80.6078 10.2054 79.8956 9.93955 78.9727 9.93955ZM97.2311 18.5011C97.2311 17.9694 96.9653 17.5531 96.4336 17.2522C95.912 16.9412 95.0694 16.6654 93.9058 16.4246C90.0338 15.6121 88.0978 13.967 88.0978 11.4894C88.0978 10.0449 88.6947 8.84115 89.8884 7.87817C91.0921 6.90516 92.662 6.41865 94.598 6.41865C96.6644 6.41865 98.3145 6.90516 99.5483 7.87817C100.792 8.85118 101.414 10.1151 101.414 11.6699H97.0656C97.0656 11.048 96.865 10.5364 96.4637 10.1352C96.0625 9.72389 95.4356 9.51825 94.5829 9.51825C93.8506 9.51825 93.2839 9.68376 92.8826 10.0148C92.4814 10.3458 92.2808 10.7671 92.2808 11.2787C92.2808 11.7602 92.5065 12.1514 92.9579 12.4523C93.4193 12.7432 94.1917 12.999 95.2751 13.2197C96.3584 13.4304 97.2712 13.6711 98.0135 13.9419C100.311 14.7846 101.459 16.2441 101.459 18.3205C101.459 19.8051 100.822 21.0088 99.5483 21.9317C98.2743 22.8445 96.6292 23.3009 94.613 23.3009C93.2488 23.3009 92.035 23.0602 90.9717 22.5787C89.9185 22.0872 89.0909 21.4201 88.489 20.5775C87.8872 19.7249 87.5862 18.807 87.5862 17.824H91.709C91.7491 18.5964 92.035 19.1882 92.5667 19.5995C93.0983 20.0107 93.8105 20.2164 94.7033 20.2164C95.5359 20.2164 96.1628 20.0609 96.5841 19.7499C97.0154 19.4289 97.2311 19.0127 97.2311 18.5011Z" fill="white"/>
<path d="M46 14.5C46 9.80556 42.1944 6 37.5 6C32.8056 6 29 9.80556 29 14.5C29 19.1944 32.8056 23 37.5 23H46V21.5833H42.1927C44.5692 20.01 45.999 17.3503 46 14.5ZM41.6635 20.2307C40.7141 20.9203 39.385 20.71 38.6953 19.7603C38.0057 18.8109 38.2159 17.4821 39.1653 16.7921C40.1151 16.1024 41.4439 16.3127 42.1336 17.2624C42.8236 18.2118 42.6129 19.5406 41.6635 20.2307ZM41.5591 10.9469C42.6752 10.5841 43.874 11.1949 44.2368 12.311C44.5992 13.4275 43.9884 14.6262 42.8723 14.9887C41.7562 15.3515 40.5575 14.7407 40.1946 13.6246C39.8322 12.5085 40.443 11.3094 41.5591 10.9469ZM37.5 7.41667C38.6735 7.41667 39.625 8.36814 39.625 9.54167C39.625 10.7152 38.6735 11.6667 37.5 11.6667C36.3265 11.6667 35.375 10.7152 35.375 9.54167C35.375 8.36814 36.3265 7.41667 37.5 7.41667ZM30.7632 12.311C31.126 11.1949 32.3248 10.5841 33.4409 10.9466C34.557 11.3094 35.1678 12.5082 34.8054 13.6243C34.4425 14.7404 33.2438 15.3512 32.1277 14.9887C31.0116 14.6262 30.4008 13.4275 30.7632 12.311ZM36.3047 19.7603C35.615 20.71 34.2859 20.9203 33.3365 20.2307C32.3871 19.5406 32.1764 18.2118 32.8664 17.2624C33.5561 16.313 34.8853 16.1024 35.8347 16.7924C36.7841 17.4821 36.9943 18.8109 36.3047 19.7603ZM36.7917 14.5C36.7917 14.1088 37.1088 13.7917 37.5 13.7917C37.8912 13.7917 38.2083 14.1088 38.2083 14.5C38.2083 14.8912 37.8912 15.2083 37.5 15.2083C37.1088 15.2083 36.7917 14.8912 36.7917 14.5Z" fill="#E50914"/>
</svg>
